# File produced by Open Asset Import Library (http://www.assimp.sf.net)
# (assimp v3.1.6393133)

mtllib Book1.mtl

# vertex positions
v 17.776749 304.932739 -91.428856
v -14.879234 304.932770 -91.428856
v -14.879234 304.932739 98.941750
v 17.776749 304.932709 98.941750
v 17.776726 2.185379 98.941704
v -14.879257 2.185379 98.941704
v -14.879257 2.185410 -91.428902
v 17.776726 2.185410 -91.428902
v -15.117786 0.216110 99.999992
v -15.117777 306.506683 99.999992
v -15.117792 306.506683 -94.972137
v -15.117802 0.216110 -94.972137
v 19.588917 0.322754 99.999992
v 19.588902 0.322754 -94.972137
v 19.588905 306.539551 -94.972137
v 19.588921 306.539551 99.999992
v -6.650422 0.242126 102.775040
v -6.650415 306.514709 102.775040
v 11.121559 306.531525 102.775040
v 2.235573 306.523132 104.395058
v 2.235563 0.269424 104.395058
v 11.121552 0.296722 102.775040
v -14.307627 0.216110 99.413780
v -14.117802 0.216110 -94.972137
v -14.117792 306.506683 -94.972137
v -14.308136 306.506683 99.413071
v 18.779549 0.322754 99.412697
v 18.779037 306.539551 99.413406
v 18.588909 306.539551 -94.972137
v 18.588902 0.322754 -94.972137
v -6.404489 306.514709 101.805748
v -6.404332 0.242126 101.805794
v 10.875553 306.531525 101.805771
v 10.875710 0.296722 101.805725
v 2.235914 0.269424 103.395050
v 2.235464 306.523132 103.395050

# UV coordinates
vt 0.704439 0.320956
vt 0.704644 0.276146
vt 0.965870 0.277344
vt 0.965664 0.322154
vt 0.287813 0.580276
vt 0.703241 0.582181
vt 0.703035 0.626992
vt 0.287608 0.625087
vt 0.290414 0.013015
vt 0.705842 0.014921
vt 0.289217 0.274241
vt 0.289011 0.319051
vt 0.027786 0.317853
vt 0.027991 0.273043
vt 0.027939 0.955222
vt 0.027939 0.716522
vt 0.179886 0.716522
vt 0.179886 0.955222
vt 0.669706 0.955069
vt 0.517759 0.955069
vt 0.517759 0.716427
vt 0.669706 0.716427
vt 0.966232 0.707047
vt 0.966232 0.976422
vt 0.958395 0.976400
vt 0.958395 0.707040
vt 0.942508 0.707025
vt 0.950451 0.707032
vt 0.950451 0.976376
vt 0.942508 0.976352
vt 0.934671 0.976329
vt 0.934671 0.707018
vt 0.335541 0.955187
vt 0.184052 0.955187
vt 0.184052 0.716487
vt 0.335541 0.716487
vt 0.362105 0.955104
vt 0.362105 0.716462
vt 0.513594 0.716462
vt 0.513594 0.955104
vt 0.341977 0.716481
vt 0.341977 0.955167
vt 0.355669 0.716468
vt 0.355669 0.955124
vt 0.348823 0.955146
vt 0.348823 0.716475
vt 0.337472 0.957857
vt 0.184074 0.957831
vt 0.184087 0.713844
vt 0.337771 0.713477
vt 0.513559 0.957747
vt 0.360011 0.957978
vt 0.360172 0.713792
vt 0.513572 0.713818
vt 0.758133 0.911067
vt 0.746386 0.846624
vt 0.753639 0.846627
vt 0.765163 0.909285
vt 0.846308 0.908838
vt 0.834666 0.844978
vt 0.841852 0.844979
vt 0.853273 0.907071
vt 0.846309 0.781119
vt 0.853275 0.782887
vt 0.758137 0.782182
vt 0.765166 0.783967
vt 0.866252 0.720267
vt 0.870467 0.726088
vt 0.778256 0.972475
vt 0.782515 0.966605
vt 0.866249 0.969689
vt 0.870467 0.963871
vt 0.778264 0.720776
vt 0.782515 0.726651

# vertex normals
vn 0.000000 1.000000 0.000000
vn -0.000000 -0.000000 1.000000
vn -1.000000 0.000000 0.000000
vn -0.000000 -1.000000 -0.000000
vn 1.000000 -0.000000 0.000000
vn 0.000000 0.000000 -1.000000
vn -0.649803 -0.596369 0.471276
vn -0.650469 0.595701 0.471201
vn -0.577350 0.577350 -0.577350
vn -0.577350 -0.577350 -0.577350
vn 0.650825 -0.595345 0.471159
vn 0.577355 -0.577348 -0.577348
vn 0.577350 0.577350 -0.577350
vn 0.650156 0.596015 0.471236
vn -0.175637 -0.691977 0.700229
vn -0.178127 0.692122 0.699456
vn 0.176956 0.692054 0.699820
vn -0.000548 0.668878 0.743372
vn 0.001776 -0.668875 0.743373
vn 0.179445 -0.692194 0.699047
vn 0.399111 -0.868557 -0.293800
vn 0.577658 -0.577299 -0.577094
vn 0.577658 0.577299 -0.577094
vn 0.397845 0.868533 -0.295584
vn -0.397178 -0.868518 -0.296525
vn -0.398448 0.868543 -0.294739
vn -0.577659 0.577299 -0.577093
vn -0.577654 -0.577301 -0.577096
vn 0.162912 0.719889 -0.674700
vn 0.165724 -0.720051 -0.673842
vn -0.164249 0.719967 -0.674292
vn -0.161439 -0.719799 -0.675149
vn 0.002523 -0.750180 -0.661229
vn -0.000781 0.750184 -0.661229

# Mesh
g Cube
usemtl Material
f 4/4/1 1/1/1 2/2/1
f 2/2/1 3/3/1 4/4/1
f 6/8/2 5/5/2 4/6/2
f 4/6/2 3/7/2 6/8/2
f 7/11/3 6/9/3 3/10/3
f 3/10/3 2/2/3 7/11/3
f 6/14/4 7/11/4 8/12/4
f 8/12/4 5/13/4 6/14/4
f 5/5/5 8/12/5 1/1/5
f 1/1/5 4/6/5 5/5/5
f 8/12/6 7/11/6 2/2/6
f 2/2/6 1/1/6 8/12/6

# Mesh
g Plane
usemtl Material
f 12/18/10 9/15/7 10/16/8
f 10/16/8 11/17/9 12/18/10
f 16/22/14 13/19/11 14/20/12
f 14/20/12 15/21/13 16/22/14
f 18/26/16 10/23/8 9/24/7
f 9/24/7 17/25/15 18/26/16
f 22/30/20 19/27/17 20/28/18
f 20/28/18 21/29/19 22/30/20
f 21/29/19 20/28/18 18/26/16
f 18/26/16 17/25/15 21/29/19
f 16/32/14 19/27/17 22/30/20
f 22/30/20 13/31/11 16/32/14
f 26/36/24 23/33/21 24/34/22
f 24/34/22 25/35/23 26/36/24
f 30/40/28 27/37/25 28/38/26
f 28/38/26 29/39/27 30/40/28
f 23/33/21 26/36/24 31/41/29
f 31/41/29 32/42/30 23/33/21
f 36/46/34 33/43/31 34/44/32
f 34/44/32 35/45/33 36/46/34
f 31/41/29 36/46/34 35/45/33
f 35/45/33 32/42/30 31/41/29
f 34/44/32 33/43/31 28/38/26
f 28/38/26 27/37/25 34/44/32
f 23/33/21 9/47/7 12/48/10
f 12/48/10 24/34/22 23/33/21
f 24/34/22 12/18/10 11/17/9
f 11/17/9 25/35/23 24/34/22
f 25/35/23 11/49/9 10/50/8
f 10/50/8 26/36/24 25/35/23
f 30/40/28 14/51/12 13/52/11
f 13/52/11 27/37/25 30/40/28
f 29/39/27 15/21/13 14/20/12
f 14/20/12 30/40/28 29/39/27
f 28/38/26 16/53/14 15/54/13
f 15/54/13 29/39/27 28/38/26
f 34/58/32 22/55/20 21/56/19
f 21/56/19 35/57/33 34/58/32
f 31/62/29 18/59/16 20/60/18
f 20/60/18 36/61/34 31/62/29
f 36/61/34 20/60/18 19/63/17
f 19/63/17 33/64/31 36/61/34
f 35/57/33 21/56/19 17/65/15
f 17/65/15 32/66/30 35/57/33
f 33/64/31 19/63/17 16/67/14
f 16/67/14 28/68/26 33/64/31
f 27/70/25 13/69/11 22/55/20
f 22/55/20 34/58/32 27/70/25
f 26/72/24 10/71/8 18/59/16
f 18/59/16 31/62/29 26/72/24
f 32/66/30 17/65/15 9/73/7
f 9/73/7 23/74/21 32/66/30
